<mxfile host="app.diagrams.net" modified="2023-02-08T02:44:31.982Z" agent="5.0 (Windows NT 10.0; Win64; x64) AppleWebKit/537.36 (KHTML, like Gecko) Chrome/109.0.0.0 Safari/537.36" etag="abYdGDybpX8p-UwFxbCP" version="20.8.18" type="github">
  <diagram id="C5RBs43oDa-KdzZeNtuy" name="Page-1">
    <mxGraphModel dx="1434" dy="788" grid="1" gridSize="10" guides="1" tooltips="1" connect="1" arrows="1" fold="1" page="1" pageScale="1" pageWidth="827" pageHeight="1169" math="0" shadow="0">
      <root>
        <mxCell id="WIyWlLk6GJQsqaUBKTNV-0" />
        <mxCell id="WIyWlLk6GJQsqaUBKTNV-1" parent="WIyWlLk6GJQsqaUBKTNV-0" />
        <mxCell id="8u9az_-6E9huGCgLwTI3-13" value="IS" style="edgeStyle=orthogonalEdgeStyle;rounded=0;orthogonalLoop=1;jettySize=auto;html=1;entryX=0;entryY=0.5;entryDx=0;entryDy=0;" parent="WIyWlLk6GJQsqaUBKTNV-1" source="8u9az_-6E9huGCgLwTI3-10" target="8u9az_-6E9huGCgLwTI3-12" edge="1">
          <mxGeometry relative="1" as="geometry" />
        </mxCell>
        <mxCell id="8u9az_-6E9huGCgLwTI3-10" value="request_type" style="strokeWidth=2;html=1;shape=mxgraph.flowchart.decision;whiteSpace=wrap;" parent="WIyWlLk6GJQsqaUBKTNV-1" vertex="1">
          <mxGeometry x="108" y="490" width="100" height="100" as="geometry" />
        </mxCell>
        <mxCell id="8u9az_-6E9huGCgLwTI3-15" value="And" style="edgeStyle=orthogonalEdgeStyle;rounded=0;orthogonalLoop=1;jettySize=auto;html=1;" parent="WIyWlLk6GJQsqaUBKTNV-1" source="8u9az_-6E9huGCgLwTI3-12" target="8u9az_-6E9huGCgLwTI3-14" edge="1">
          <mxGeometry relative="1" as="geometry" />
        </mxCell>
        <mxCell id="8u9az_-6E9huGCgLwTI3-12" value="access_token" style="rounded=1;whiteSpace=wrap;html=1;fontSize=12;glass=0;strokeWidth=1;shadow=0;" parent="WIyWlLk6GJQsqaUBKTNV-1" vertex="1">
          <mxGeometry x="258" y="520" width="120" height="40" as="geometry" />
        </mxCell>
        <mxCell id="8u9az_-6E9huGCgLwTI3-17" value="iIS" style="edgeStyle=orthogonalEdgeStyle;rounded=0;orthogonalLoop=1;jettySize=auto;html=1;" parent="WIyWlLk6GJQsqaUBKTNV-1" source="8u9az_-6E9huGCgLwTI3-14" target="8u9az_-6E9huGCgLwTI3-16" edge="1">
          <mxGeometry relative="1" as="geometry">
            <Array as="points">
              <mxPoint x="640" y="540" />
              <mxPoint x="640" y="540" />
            </Array>
          </mxGeometry>
        </mxCell>
        <mxCell id="8u9az_-6E9huGCgLwTI3-14" value="grant_type" style="strokeWidth=2;html=1;shape=mxgraph.flowchart.decision;whiteSpace=wrap;" parent="WIyWlLk6GJQsqaUBKTNV-1" vertex="1">
          <mxGeometry x="458" y="490" width="100" height="100" as="geometry" />
        </mxCell>
        <mxCell id="8u9az_-6E9huGCgLwTI3-16" value="client_credentials" style="rounded=1;whiteSpace=wrap;html=1;fontSize=12;glass=0;strokeWidth=1;shadow=0;" parent="WIyWlLk6GJQsqaUBKTNV-1" vertex="1">
          <mxGeometry x="650" y="520" width="150" height="40" as="geometry" />
        </mxCell>
        <mxCell id="6J8a5stnOlsp0kq5DlnN-0" style="edgeStyle=orthogonalEdgeStyle;rounded=0;orthogonalLoop=1;jettySize=auto;html=1;entryX=0.5;entryY=0;entryDx=0;entryDy=0;entryPerimeter=0;" parent="WIyWlLk6GJQsqaUBKTNV-1" source="FqvtAqR_Rkzib5x8kWpQ-0" target="8u9az_-6E9huGCgLwTI3-10" edge="1">
          <mxGeometry relative="1" as="geometry" />
        </mxCell>
        <mxCell id="FqvtAqR_Rkzib5x8kWpQ-0" value="Client_&lt;br&gt;Credentials_&lt;br&gt;Demo" style="rounded=1;whiteSpace=wrap;html=1;absoluteArcSize=1;arcSize=14;strokeWidth=2;" parent="WIyWlLk6GJQsqaUBKTNV-1" vertex="1">
          <mxGeometry x="108" y="320" width="100" height="100" as="geometry" />
        </mxCell>
        <mxCell id="FqvtAqR_Rkzib5x8kWpQ-15" value="request_type =&amp;nbsp;stsuu.getContextAttributes().getAttributeValuesByNameAndType(&quot;request_type&quot;, &quot;urn:ibm:names:ITFIM:oauth:request&quot;);" style="shape=tape;whiteSpace=wrap;html=1;strokeWidth=2;size=0.19" parent="WIyWlLk6GJQsqaUBKTNV-1" vertex="1">
          <mxGeometry x="285" y="46" width="810" height="44" as="geometry" />
        </mxCell>
        <mxCell id="FqvtAqR_Rkzib5x8kWpQ-16" value="grant_type =&amp;nbsp;stsuu.getContextAttributes().getAttributeValuesByNameAndType(&quot;grant_type&quot;, &quot;urn:ibm:names:ITFIM:oauth:body:param&quot;);" style="shape=tape;whiteSpace=wrap;html=1;strokeWidth=2;size=0.19" parent="WIyWlLk6GJQsqaUBKTNV-1" vertex="1">
          <mxGeometry x="285" y="129" width="810" height="65" as="geometry" />
        </mxCell>
        <mxCell id="FqvtAqR_Rkzib5x8kWpQ-17" value="username =&amp;nbsp;stsuu.getContextAttributes().getAttributeValuesByNameAndType(&quot;username&quot;, &quot;urn:ibm:names:ITFIM:oauth:body:param&quot;);&lt;br&gt;or&lt;br&gt;username =&amp;nbsp;stsuu.getContextAttributes().getAttributeValuesByNameAndType(&quot;username&quot;, &quot;urn:ibm:names:ITFIM:oauth:request&quot;);" style="shape=tape;whiteSpace=wrap;html=1;strokeWidth=2;size=0.19" parent="WIyWlLk6GJQsqaUBKTNV-1" vertex="1">
          <mxGeometry x="285" y="194" width="810" height="65" as="geometry" />
        </mxCell>
        <mxCell id="FqvtAqR_Rkzib5x8kWpQ-18" value="password =&amp;nbsp;stsuu.getContextAttributes().getAttributeValuesByNameAndType(&quot;password&quot;, &quot;urn:ibm:names:ITFIM:oauth:body:param&quot;);" style="shape=tape;whiteSpace=wrap;html=1;strokeWidth=2;size=0.19" parent="WIyWlLk6GJQsqaUBKTNV-1" vertex="1">
          <mxGeometry x="285" y="261" width="810" height="65" as="geometry" />
        </mxCell>
        <mxCell id="VXy_Dsxw0l8oIBGZ0-ki-0" value="state_id =&amp;nbsp;stsuu.getContextAttributes().getAttributeValuesByNameAndType(&quot;state_id&quot;, &quot;urn:ibm:names:ITFIM:oauth:state&quot;);" style="shape=tape;whiteSpace=wrap;html=1;strokeWidth=2;size=0.19" vertex="1" parent="WIyWlLk6GJQsqaUBKTNV-1">
          <mxGeometry x="285" y="88" width="810" height="44" as="geometry" />
        </mxCell>
        <mxCell id="VXy_Dsxw0l8oIBGZ0-ki-1" value="And" style="edgeStyle=orthogonalEdgeStyle;rounded=0;orthogonalLoop=1;jettySize=auto;html=1;" edge="1" parent="WIyWlLk6GJQsqaUBKTNV-1" target="VXy_Dsxw0l8oIBGZ0-ki-2">
          <mxGeometry relative="1" as="geometry">
            <mxPoint x="800" y="535" as="sourcePoint" />
          </mxGeometry>
        </mxCell>
        <mxCell id="VXy_Dsxw0l8oIBGZ0-ki-5" value="IS NOT NULL" style="edgeStyle=orthogonalEdgeStyle;rounded=0;orthogonalLoop=1;jettySize=auto;html=1;entryX=0;entryY=0.5;entryDx=0;entryDy=0;" edge="1" parent="WIyWlLk6GJQsqaUBKTNV-1" source="VXy_Dsxw0l8oIBGZ0-ki-2" target="VXy_Dsxw0l8oIBGZ0-ki-6">
          <mxGeometry relative="1" as="geometry">
            <mxPoint x="1095" y="535" as="targetPoint" />
          </mxGeometry>
        </mxCell>
        <mxCell id="VXy_Dsxw0l8oIBGZ0-ki-2" value="state_id" style="strokeWidth=2;html=1;shape=mxgraph.flowchart.decision;whiteSpace=wrap;" vertex="1" parent="WIyWlLk6GJQsqaUBKTNV-1">
          <mxGeometry x="880" y="485" width="100" height="100" as="geometry" />
        </mxCell>
        <mxCell id="VXy_Dsxw0l8oIBGZ0-ki-10" value="Associate" style="edgeStyle=orthogonalEdgeStyle;rounded=0;orthogonalLoop=1;jettySize=auto;html=1;" edge="1" parent="WIyWlLk6GJQsqaUBKTNV-1" source="VXy_Dsxw0l8oIBGZ0-ki-6" target="VXy_Dsxw0l8oIBGZ0-ki-9">
          <mxGeometry relative="1" as="geometry" />
        </mxCell>
        <mxCell id="VXy_Dsxw0l8oIBGZ0-ki-12" value="getAssociationKeys" style="edgeStyle=orthogonalEdgeStyle;rounded=0;orthogonalLoop=1;jettySize=auto;html=1;entryX=0.5;entryY=0;entryDx=0;entryDy=0;entryPerimeter=0;" edge="1" parent="WIyWlLk6GJQsqaUBKTNV-1" source="VXy_Dsxw0l8oIBGZ0-ki-6" target="VXy_Dsxw0l8oIBGZ0-ki-13">
          <mxGeometry relative="1" as="geometry">
            <mxPoint x="1150" y="630" as="targetPoint" />
          </mxGeometry>
        </mxCell>
        <mxCell id="VXy_Dsxw0l8oIBGZ0-ki-6" value="OAuth&lt;br&gt;Mapping&lt;br&gt;ExtUtils" style="rounded=1;whiteSpace=wrap;html=1;absoluteArcSize=1;arcSize=14;strokeWidth=2;" vertex="1" parent="WIyWlLk6GJQsqaUBKTNV-1">
          <mxGeometry x="1120" y="510" width="59" height="50" as="geometry" />
        </mxCell>
        <mxCell id="VXy_Dsxw0l8oIBGZ0-ki-9" value="" style="shape=internalStorage;whiteSpace=wrap;html=1;dx=15;dy=15;rounded=1;arcSize=8;strokeWidth=2;" vertex="1" parent="WIyWlLk6GJQsqaUBKTNV-1">
          <mxGeometry x="1114.5" y="400" width="70" height="50" as="geometry" />
        </mxCell>
        <UserObject label="stsuu.addContextAttribute" link="stsuu.addContextAttribute" id="VXy_Dsxw0l8oIBGZ0-ki-15">
          <mxCell style="edgeStyle=orthogonalEdgeStyle;rounded=0;orthogonalLoop=1;jettySize=auto;html=1;entryX=1;entryY=0.5;entryDx=0;entryDy=0;" edge="1" parent="WIyWlLk6GJQsqaUBKTNV-1" source="VXy_Dsxw0l8oIBGZ0-ki-13" target="VXy_Dsxw0l8oIBGZ0-ki-14">
            <mxGeometry relative="1" as="geometry" />
          </mxCell>
        </UserObject>
        <mxCell id="VXy_Dsxw0l8oIBGZ0-ki-13" value="attrKeyArray" style="strokeWidth=2;html=1;shape=mxgraph.flowchart.multi-document;whiteSpace=wrap;" vertex="1" parent="WIyWlLk6GJQsqaUBKTNV-1">
          <mxGeometry x="1105.5" y="630" width="88" height="60" as="geometry" />
        </mxCell>
        <mxCell id="VXy_Dsxw0l8oIBGZ0-ki-14" value="new Attribute(attrKeyArray[i], &quot;urn:ibm:names:ITFIM:oauth:response:attribute&quot;, OAuthMappingExtUtils.getAssociation(state_id, attrKeyArray[i]));" style="rounded=1;whiteSpace=wrap;html=1;fontSize=12;glass=0;strokeWidth=1;shadow=0;" vertex="1" parent="WIyWlLk6GJQsqaUBKTNV-1">
          <mxGeometry x="300" y="640" width="520" height="80" as="geometry" />
        </mxCell>
      </root>
    </mxGraphModel>
  </diagram>
</mxfile>
